<?xml version="1.0" encoding="UTF-8"?>
<svg version="1.1" xmlns="http://www.w3.org/2000/svg" width="128" height="128">
<path d="M0 0 C0.84224121 0.00142502 1.68448242 0.00285004 2.55224609 0.00431824 C3.50663574 0.00124161 4.46102539 -0.00183502 5.44433594 -0.00500488 C6.47768066 0.00218063 7.51102539 0.00936615 8.57568359 0.01676941 C9.63352051 0.01722763 10.69135742 0.01768585 11.78125 0.01815796 C14.02068196 0.02118271 16.26011178 0.02907562 18.49951172 0.04142761 C21.93643611 0.05966257 25.37309093 0.06193749 28.81005859 0.06169128 C30.98193593 0.06660716 33.15381144 0.07243579 35.32568359 0.07926941 C36.35902832 0.08038223 37.39237305 0.08149506 38.45703125 0.0826416 C39.88861572 0.09221138 39.88861572 0.09221138 41.34912109 0.10197449 C42.1913623 0.10578629 43.03360352 0.10959808 43.90136719 0.11352539 C45.95068359 0.24723816 45.95068359 0.24723816 47.95068359 1.24723816 C47.99696509 10.20916211 48.0325314 19.17104511 48.05430794 28.13306236 C48.06475805 32.29421069 48.07893951 36.45527742 48.1015625 40.61637878 C48.1232473 44.62990245 48.13524296 48.64334749 48.14043808 52.6569252 C48.14414171 54.19038252 48.1513737 55.7238354 48.16214371 57.25725937 C48.17660088 59.40033617 48.178664 61.54308552 48.17773438 63.686203 C48.1821756 64.90753937 48.18661682 66.12887573 48.19119263 67.38722229 C47.95068359 70.24723816 47.95068359 70.24723816 45.95068359 72.24723816 C43.90136719 72.50120544 43.90136719 72.50120544 41.34912109 72.50602722 C40.39473145 72.51233154 39.4403418 72.51863586 38.45703125 72.52513123 C36.90701416 72.51905853 36.90701416 72.51905853 35.32568359 72.51286316 C34.26784668 72.51477661 33.21000977 72.51669006 32.12011719 72.5186615 C29.8806942 72.52002418 27.64126334 72.51632198 25.40185547 72.50798035 C21.96482682 72.49728218 18.5283209 72.50787303 15.09130859 72.52067566 C12.91943243 72.51935408 10.7475566 72.51679172 8.57568359 72.51286316 C7.54233887 72.51691162 6.50899414 72.52096008 5.44433594 72.52513123 C4.48994629 72.5188269 3.53555664 72.51252258 2.55224609 72.50602722 C1.71000488 72.50443604 0.86776367 72.50284485 0 72.50120544 C-2.04931641 72.24723816 -2.04931641 72.24723816 -4.04931641 70.24723816 C-4.30328369 67.43864441 -4.30328369 67.43864441 -4.30810547 63.80973816 C-4.31161011 63.14941589 -4.31511475 62.48909363 -4.31872559 61.8087616 C-4.32754322 59.62148084 -4.32169384 57.43452233 -4.31494141 55.24723816 C-4.31628805 53.73031044 -4.31822858 52.21338315 -4.32073975 50.69645691 C-4.32369104 47.51542557 -4.31939325 44.33450646 -4.31005859 41.15348816 C-4.29866398 37.07095914 -4.30522343 32.98869307 -4.31720352 28.90617371 C-4.32442201 25.77325958 -4.32213426 22.64040805 -4.31694794 19.50749207 C-4.31561141 18.0019579 -4.31725928 16.49641809 -4.32190704 14.9908905 C-4.32697219 12.88868604 -4.31926268 10.78691058 -4.30810547 8.68473816 C-4.30651428 7.4871991 -4.3049231 6.28966003 -4.30328369 5.05583191 C-4.00296866 1.73468394 -3.45268406 0.41654634 0 0 Z " fill="#F5F9FE" transform="translate(42.04931640625,27.752761840820313)"/>
<path d="M0 0 C1.67542976 0.28604898 3.34385343 0.61781233 5 1 C5 2.65 5 4.3 5 6 C6.65 6 8.3 6 10 6 C10.38218767 7.65614657 10.71395102 9.32457024 11 11 C10 12 10 12 7.4375 12.0625 C6.633125 12.041875 5.82875 12.02125 5 12 C5 13.65 5 15.3 5 17 C3.34385343 17.38218767 1.67542976 17.71395102 0 18 C-1 17 -1 17 -1.0625 14.4375 C-1.041875 13.633125 -1.02125 12.82875 -1 12 C-2.65 12 -4.3 12 -6 12 C-6.38218767 10.34385343 -6.71395102 8.67542976 -7 7 C-6 6 -6 6 -3.4375 5.9375 C-2.2309375 5.9684375 -2.2309375 5.9684375 -1 6 C-1.020625 5.195625 -1.04125 4.39125 -1.0625 3.5625 C-1 1 -1 1 0 0 Z " fill="#3895FF" transform="translate(62,42)"/>
<path d="M0 0 C12.54 0 25.08 0 38 0 C38 0.99 38 1.98 38 3 C25.46 3 12.92 3 0 3 C0 2.01 0 1.02 0 0 Z " fill="#4FB053" transform="translate(45,70)"/>
<path d="M0 0 C11.55 0 23.1 0 35 0 C35 0.99 35 1.98 35 3 C23.45 3 11.9 3 0 3 C0 2.01 0 1.02 0 0 Z " fill="#4FB053" transform="translate(45,86)"/>
<path d="M0 0 C10.56 0 21.12 0 32 0 C32 0.99 32 1.98 32 3 C21.44 3 10.88 3 0 3 C0 2.01 0 1.02 0 0 Z " fill="#F4463A" transform="translate(45,78)"/>
<path d="M0 0 C0.66 0 1.32 0 2 0 C2 3.63 2 7.26 2 11 C-1.63 11 -5.26 11 -9 11 C-8.071875 9.9275 -7.14375 8.855 -6.1875 7.75 C-4.44361555 5.72709404 -2.80913318 3.73414979 -1.25 1.5625 C-0.8375 1.046875 -0.425 0.53125 0 0 Z " fill="#E0E0E0" transform="translate(88,29)"/>
<path d="M0 0 C3.7952131 1.49097658 5.61042731 3.75700849 8 7 C5.69 8.65 3.38 10.3 1 12 C1 9 1 9 2 7 C-0.31 7 -2.62 7 -5 7 C-5 6.34 -5 5.68 -5 5 C-2.69 5 -0.38 5 2 5 C1.34 3.35 0.68 1.7 0 0 Z " fill="#F6D40A" transform="translate(104,44)"/>
</svg>
